<svg width="1440" height="356" viewBox="0 0 1440 356" fill="none" xmlns="http://www.w3.org/2000/svg">
<g opacity="0.12">
<path fill-rule="evenodd" clip-rule="evenodd" d="M467.837 28.7253C467.729 5.60632 424.655 -20.3916 406.255 -33.795C369.874 -60.3053 332.036 -84.7861 294.549 -109.658C257.061 -134.53 219.473 -159.334 183.726 -186.64C160.516 -204.365 133.244 -224.329 117.502 -249.639C83.9689 -303.577 189.697 -295.567 217.084 -296.747C286.756 -299.76 366.669 -298.385 431.975 -326.473C470.96 -343.241 486.506 -371.362 478.133 -412.348C475.434 -425.677 467.445 -441.016 474.213 -454.001C481.439 -467.87 498.064 -475.873 511.862 -481.24C562.189 -500.792 620.053 -503.057 673.302 -505.512C730.72 -508.208 788.679 -507.42 845.693 -507.629C869.868 -507.716 895.116 -516.393 918.137 -523.446C948.317 -532.689 978.14 -543.072 1008.07 -553.111C1073.92 -575.145 1141.77 -598.351 1211.43 -603.947C1255.06 -607.453 1302.74 -602.714 1336.63 -572.219C1353.65 -556.907 1362.55 -534.146 1372.39 -513.926C1384.3 -489.499 1395.74 -464.836 1408.41 -440.793C1449.26 -363.359 1507.56 -287.692 1602.21 -283.889C1616.52 -283.316 1630.59 -285.184 1644.84 -285.534C1653.91 -285.75 1661.99 -283.559 1665.36 -274.073C1673.84 -250.28 1647.18 -212.719 1636.25 -193.841C1612.32 -152.518 1585.33 -113.049 1560.05 -72.5558C1543.32 -45.7758 1514.37 -9.17929 1514.07 23.3585C1513.8 52.3498 1552.39 73.3045 1573.4 87.5844C1593.09 100.954 1628.76 119.664 1630.92 146.862C1631.97 160.049 1623.27 170.978 1614.18 179.46C1598.25 194.293 1579.89 204.757 1565.56 221.68C1542.06 249.444 1522.43 287.645 1525.62 325.057C1527.83 350.981 1542.64 367.958 1561.47 384.186C1569.38 391.009 1575.81 395.837 1576.22 406.914C1576.9 424.505 1570 443.12 1564.32 459.429C1544 517.796 1515.13 574.235 1483.03 626.932C1466.98 653.267 1449.65 679.521 1428.37 701.986C1414.44 716.738 1395.65 734.294 1374.4 734.274C1349.79 734.274 1323.75 725.401 1299.83 718.767C1255.16 706.368 1211.03 692.034 1167.07 677.33C1065.41 643.309 964.708 606.532 864.963 567.001C794.704 539.108 722.954 511.175 656.9 474.093C644.017 466.811 631.858 458.321 620.586 448.736C608.542 438.67 593.597 434.166 578.443 430.809C484.387 409.968 381.344 425.968 286.897 436C262.924 438.542 238.952 441.097 214.911 442.877C194.245 444.408 169.503 448.797 149.417 442.203C109.838 429.224 144.437 381.388 159.065 361.897C210.566 293.268 277.013 235.204 338.601 175.927C367.884 147.698 397.389 119.542 425.08 89.715C439.498 74.2079 467.931 48.9922 467.837 28.7253Z" stroke="white"/>
<path fill-rule="evenodd" clip-rule="evenodd" d="M485.584 24.8278C469.799 0.364475 442.103 -17.7168 419.113 -34.7333C386.029 -59.2303 351.905 -82.366 318.295 -106.169C286.514 -128.678 254.666 -151.443 225.235 -177.005C207.288 -192.592 184.771 -211.233 176.271 -234.288C157.831 -284.259 257.029 -276.677 281.518 -277.985C342.399 -281.22 411.423 -281.961 467.746 -308.271C502.916 -324.701 517.365 -351.947 509.864 -389.775C507.271 -402.862 502.599 -414.036 508.514 -427.056C515.353 -442.125 531.085 -451.519 545.507 -458.15C590.683 -478.927 644.083 -483.342 693.054 -487.014C743.645 -490.809 796.357 -493.484 845.321 -490.708C864.901 -489.602 887.439 -495.877 906.816 -500.688C936.632 -508.101 966.145 -516.653 995.812 -524.606C1056.11 -540.78 1117.97 -556.361 1180.69 -558.133C1225.97 -559.414 1273.19 -552.472 1310.87 -525.644C1349.05 -498.437 1365.99 -456.264 1387.16 -416.172C1423.73 -346.859 1473.12 -262.586 1557.72 -247.941C1570.55 -245.717 1582.88 -246.924 1595.69 -246.378C1602.28 -246.102 1609.78 -245.225 1613.12 -238.736C1621.8 -221.888 1598.03 -191.083 1590.03 -178.177C1567.92 -142.513 1543.07 -108.595 1519.9 -73.6185C1501.5 -45.8462 1478.18 -14.9874 1471.07 17.9336C1462.43 57.8835 1518.85 86.3095 1538.7 114.439C1573.1 163.217 1507.92 191.01 1475.79 214.267C1438.89 240.967 1408.44 289.678 1441.51 330.99C1454.17 346.786 1469.74 356.201 1475.39 376.816C1484.22 409.056 1477.54 445.9 1470.37 477.769C1459.57 525.678 1442.47 573.068 1419.23 616.368C1402.58 647.368 1374.96 695.978 1334.51 692.332C1307.28 689.899 1279.6 681.01 1253.08 673.152C1213.38 661.392 1174.18 647.988 1135.19 634.065C1045.18 602.013 956.165 566.673 868.898 527.801C809.354 501.269 643.26 392.842 630.762 388.974C593.499 377.45 551.131 379.478 512.713 381.264C461.609 383.636 410.761 389.782 359.953 395.477C335.769 398.173 311.462 401.468 287.149 402.796C269.844 403.739 247.117 404.548 231.959 394.5C202.373 374.895 235.335 330.039 248.967 311.062C290.727 252.882 343.553 202.5 393.085 150.986C417.391 125.693 442.069 100.442 464.134 73.1209C473.033 62.0888 495.341 39.9371 485.584 24.8278Z" stroke="white"/>
<path fill-rule="evenodd" clip-rule="evenodd" d="M507.423 12.2818C464.313 -36.672 404.811 -73.0806 353.458 -113.965C327.683 -134.492 301.746 -155.578 279.516 -180.028C267.952 -192.742 253.512 -208.819 251.284 -226.542C245.33 -273.952 334.737 -267.541 361.498 -269.341C413.236 -272.833 471.684 -275.482 518.623 -299.676C547.3 -314.465 561.423 -338.74 556.063 -370.646C553.687 -384.802 549.987 -396.828 556.063 -410.728C562.22 -424.81 575.046 -434.747 588.035 -442.196C625.36 -463.619 671.745 -470.468 713.769 -475.571C763.067 -481.515 812.736 -483.835 862.375 -482.514C905.85 -481.375 949.116 -494.19 991.565 -502.636C1047.8 -513.82 1105.05 -523.588 1162.6 -522.111C1208.04 -520.938 1253.85 -511.723 1292.7 -487.233C1332.18 -462.291 1355.91 -424.959 1377.31 -384.674C1409.66 -323.775 1449.98 -242.167 1520.95 -219.039C1531.27 -215.668 1540.89 -215.297 1551.54 -214.711C1556.71 -214.428 1563.39 -214.34 1565.95 -208.954C1572.12 -195.984 1549.31 -170.84 1542.94 -162.076C1522.62 -134.101 1500.6 -107.386 1479.77 -79.7812C1460.33 -54.0101 1439.15 -27.1536 1427.07 3.04652C1407.85 51.1442 1469.3 79.268 1467.58 125.101C1466.51 153.555 1439.23 173.96 1417.62 188.076C1391.02 205.434 1352.73 216.847 1339.41 248.523C1329.5 272.117 1345.06 285.849 1357.04 303.753C1377.35 334.088 1378.73 375.209 1376.62 410.323C1373.77 457.773 1362.64 505.925 1343.69 549.54C1335.1 569.311 1324.58 589.878 1309.1 605.235C1294.59 619.627 1280.86 623.314 1261.47 620.368C1202.12 611.335 1142.19 586.157 1085.27 563.669C1013.76 535.41 943.236 504.213 874.816 469.112C828.161 445.174 780.454 419.848 739.503 386.776C728.83 378.154 717.9 368.784 710.096 357.412C704.196 348.864 701.692 341.806 691.748 336.926C662.274 322.466 621.276 326.248 589.696 327.751C539.199 330.144 488.946 336.515 438.761 342.251C409.476 345.622 354.308 356.226 330.923 330.792C310.738 308.829 335.095 271.382 347.537 252.035C379.009 203.109 419.494 160.168 457.056 115.953C474.27 95.6893 492.16 75.2705 506.377 52.7418C510.009 46.9984 515.828 39.3877 516.827 32.4107C517.948 24.4158 512.716 18.315 507.423 12.2818Z" stroke="white"/>
<path fill-rule="evenodd" clip-rule="evenodd" d="M511.13 23.6779C471.294 -19.6062 423.302 -55.1658 380.536 -95.6705C361.36 -113.831 341.996 -132.883 327.385 -155.038C319.526 -166.952 311.181 -181.949 313.348 -196.757C319.567 -239.258 393.101 -235.42 422.809 -237.909C466.952 -241.566 517.665 -245.249 556.698 -268.166C582.267 -283.177 591.854 -305.345 587.081 -333.936C581.956 -364.604 593.414 -386.867 619.49 -403.975C652.182 -425.408 693.449 -434.145 731.408 -440.351C777.141 -447.793 823.453 -451.092 869.78 -450.208C914.835 -449.344 958.485 -456.887 1003.24 -461.791C1062.59 -468.288 1123.83 -471.492 1182.5 -458.175C1233.59 -446.578 1279.73 -421.023 1314.32 -381.504C1350.45 -340.257 1368.33 -288.29 1397.67 -242.658C1415.97 -214.196 1441.48 -176.545 1475.68 -165.481C1487.08 -161.791 1507.86 -166.77 1498.75 -148.615C1493.55 -138.233 1483.8 -129.125 1476.11 -120.639C1463.67 -106.923 1450.82 -93.5859 1438.18 -80.0596C1411.22 -51.226 1382.36 -21.7785 1362.16 12.3644C1336.7 55.3517 1374.54 88.4354 1369.93 132.023C1367.45 155.48 1351.12 174.201 1333.85 188.908C1322.68 198.434 1310.45 206.684 1297.97 214.382C1284.93 222.423 1269.5 228.549 1258.13 238.945C1241.93 253.74 1248.96 271.253 1252 290.379C1257.35 323.99 1258.52 358.132 1255.5 392.032C1251.8 433.582 1243.12 476.32 1224.85 514.078C1217.74 528.779 1208.73 544.363 1195.35 554.219C1181.98 564.075 1168.14 563.4 1152.82 560.432C1107.36 551.662 1061.99 531.254 1018.87 511.913C964.893 487.7 911.979 460.641 861.448 429.858C826.568 408.607 791.573 385.65 762.392 356.836C753.905 348.451 745.83 339.471 739.301 329.446C734.818 322.572 732.414 313.7 725.919 308.533C705.596 292.402 664.794 297.219 640.96 298.157C593.394 300.026 546.577 308.911 499.071 311.069C473.144 312.25 432.538 315.218 413.498 293.165C395.592 272.433 411.81 239.781 422.512 219.806C443.544 180.529 471.8 145.536 497.126 109.025C507.538 94.0011 518.948 78.2823 525.693 61.1265C531.689 45.8394 521.338 34.7756 511.13 23.6779Z" stroke="white"/>
<path fill-rule="evenodd" clip-rule="evenodd" d="M520.927 24.3859C489.219 -13.7029 450.994 -47.5139 419.057 -86.2225C400.363 -108.891 368.169 -147 382.626 -178.959C398.487 -214.077 453.774 -215.033 485.732 -217.863C523.768 -221.231 568.435 -225.832 600.987 -247.76C611.282 -254.692 620.052 -263.867 623.769 -275.952C627.75 -288.887 623.398 -300.204 622.832 -313.152C621.644 -340.314 637.876 -362.12 659.357 -377.096C689.715 -398.269 727.677 -408.28 763.534 -415.259C804.158 -423.13 845.457 -427.011 886.838 -426.846C926.385 -426.711 965.514 -427.587 1005.1 -428.597C1056.87 -429.944 1109.37 -427.769 1159.59 -414.033C1209.07 -400.492 1254.04 -375.115 1289.37 -337.788C1323.84 -301.363 1347.1 -256.841 1367.46 -211.49C1379.02 -185.749 1398.54 -147.283 1426.11 -134.281C1438.37 -128.495 1450.4 -128.892 1437.36 -113.843C1420.95 -94.8925 1398.83 -79.688 1379.82 -63.4797C1352.39 -40.0902 1324.28 -16.2426 1301.26 11.5661C1286.56 29.3238 1280.01 46.5561 1281.02 69.5481C1281.81 87.0633 1285.35 104.397 1283.56 121.979C1279.36 163.248 1246.82 191.548 1218.05 217.902C1199.55 234.851 1182.65 247.779 1173.12 271.889C1161.85 300.385 1157.13 331.387 1149.6 360.974C1141.33 393.465 1131.77 427.262 1113.72 455.879C1097.65 481.357 1078.1 492.782 1048.85 485.918C1003.23 475.22 958.255 448.866 917.75 424.487C876.523 399.682 836.004 371.793 801.84 337.699C783.396 319.288 770.807 297.67 754.427 277.891C733.823 253.06 687.212 262.464 659.512 264.566C613.528 268.056 468.839 294.167 482.19 209.596C487.762 174.296 509.708 141.717 525.758 110.567C532.41 97.6398 542.037 82.1254 543.541 67.3116C545.181 51.1774 530.46 35.8516 520.927 24.3859Z" stroke="white"/>
<path fill-rule="evenodd" clip-rule="evenodd" d="M537.669 27.6202C513.438 -6.89599 484.44 -39.5047 463.648 -76.7843C450.161 -100.927 436.916 -133.186 454.315 -158.731C473.953 -187.558 517.255 -194.278 549.073 -197.951C581.854 -201.733 620.989 -204.914 647.782 -226.772C656.306 -233.735 663.333 -243.124 664.642 -254.366C665.903 -265.15 662.342 -275.935 663.522 -286.914C666.166 -311.57 681.13 -331.884 700.424 -346.618C757.498 -390.207 842.443 -399.899 911.304 -401.038C945.772 -401.604 981.245 -398.632 1015.93 -396.502C1060.95 -393.738 1106.03 -387.807 1148.96 -373.511C1240.24 -343.127 1301.42 -275.739 1344.15 -191.885C1357.6 -165.491 1367.89 -136.933 1388.96 -115.722C1399.83 -104.769 1397.45 -96.9036 1386.35 -86.9147C1368.98 -71.3046 1347.8 -59.3746 1328.53 -46.3459C1301.11 -27.8173 1273.11 -9.01237 1248.87 13.1828C1232.16 28.4829 1220.29 43.2236 1216.69 66.1669C1214.12 82.5252 1214.72 99.1935 1213.18 115.653C1210.24 146.92 1200.17 177.952 1182.35 203.888C1168.18 224.445 1151.32 243.129 1133.9 260.943C1111.25 284.136 1092.09 307.699 1074.88 335.226C1052.08 371.663 1020.03 438.875 966.307 421.088C907.056 401.461 851.52 351.591 813.505 303.271C800.739 287.047 790.259 267.151 773.042 255.187C747.267 237.305 721.115 237.932 690.457 238.006C644.558 238.107 544.682 248.063 543.603 179.367C543.178 152.151 554.967 126.417 560.611 100.238C566.977 70.9187 554.218 51.1432 537.669 27.6202Z" stroke="white"/>
<path fill-rule="evenodd" clip-rule="evenodd" d="M555.716 30.6976C531.749 -14.2882 478.004 -88.2093 518.881 -138.233C540.473 -164.67 578.665 -174.604 610.702 -180.525C636.484 -185.314 667.577 -187.112 687.057 -207.412C701.376 -222.338 695.02 -244.06 700.505 -262.744C707.314 -285.907 722.941 -304.86 742.145 -319.106C795.808 -358.919 870.423 -371.137 934.977 -373.737C1002.02 -376.431 1075.89 -363.829 1138.98 -339.588C1217.65 -309.353 1276.58 -252.102 1317.79 -179.602C1325.4 -166.219 1332.31 -152.485 1339.61 -138.94C1344.51 -129.854 1351.79 -121.065 1355.65 -111.507C1362.09 -95.5711 1354.51 -82.5448 1342.35 -72.1588C1324.86 -57.2062 1303.37 -46.5643 1283.43 -35.3431C1256.17 -19.9863 1228.29 -4.90575 1202.93 13.1115C1185.88 25.2352 1168.04 38.2952 1161.94 59.3299C1157.78 73.6763 1156.92 88.8713 1157.07 103.73C1157.39 135.588 1155.72 161.351 1140.83 190.529C1116.34 238.431 1078.67 281.504 1038.88 317.343C1007.65 345.47 958.242 389.163 912.743 370.358C871.921 353.519 848.041 313.214 821.145 280.628C808.068 264.787 793.379 250.319 776.119 239.051C754.358 224.846 733.872 218.885 708.09 216.561C664.696 212.648 599.265 211.631 585.851 159.634C580.898 140.444 583.725 120.568 581.127 101.13C577.733 75.4275 567.808 53.3892 555.716 30.6976Z" stroke="white"/>
<path fill-rule="evenodd" clip-rule="evenodd" d="M580.638 32.3635C563.571 -16.8597 541.15 -78.8943 582.371 -122.642C602.338 -143.835 630.423 -155.683 657.604 -164.536C677.072 -170.881 707.983 -172.749 719.918 -192.256C728.684 -206.612 729.898 -226.415 737.828 -241.796C748.725 -262.942 765.232 -280.359 784.599 -293.993C835.051 -329.521 900.763 -343.25 960.69 -347.181C1090.9 -355.711 1223.39 -287.776 1293.07 -176.006C1313.84 -142.689 1340.66 -107.228 1307.09 -73.1899C1270.43 -36.0567 1215.21 -18.6601 1171.46 7.72491C1154.74 17.7988 1133.44 29.909 1124.12 48.1486C1118.51 59.1125 1118.12 72.868 1117.87 84.9378C1117.19 115.679 1114.64 143.325 1102.26 172.009C1083.15 216.337 1052.68 257.232 1018.15 290.731C988.033 319.941 945.086 354.269 901.35 333.211C867.816 317.028 846.548 282.68 820.493 257.361C791.497 229.162 755.637 210.16 716.257 200.875C677.949 191.867 635.932 185.791 615.743 147.519C608.818 134.39 601.582 117.391 598.986 102.86C594.795 78.9021 588.659 55.3251 580.638 32.3635Z" stroke="white"/>
<path fill-rule="evenodd" clip-rule="evenodd" d="M608.426 32.7102C600.531 -16.9947 599.653 -68.8231 636.338 -107.998C653.459 -126.274 675.101 -139.258 696.986 -151.022C713.088 -159.678 729.716 -166.979 741.741 -181.17C752.883 -194.309 761.352 -209.565 772.109 -223.048C786.299 -240.916 803.277 -256.383 822.392 -268.856C870.306 -300.062 928.592 -314.658 984.354 -319.721C1011.35 -322.181 1040.63 -323.462 1067.44 -316.754C1093.33 -310.283 1118.94 -300.049 1142.75 -288.117C1193.36 -262.775 1237.22 -225.664 1269.02 -178.743C1290.83 -146.559 1302.62 -115.265 1274.38 -82.6162C1242.55 -45.8145 1192.64 -25.5092 1151.5 -1.62411C1123.28 14.7577 1091.66 30.8159 1086.39 65.6289C1082.19 93.3296 1078.78 119.621 1067.93 145.805C1051.77 184.427 1028.01 219.413 998.053 248.687C970.661 275.356 936.008 297.987 896.827 283.743C865.784 272.437 841.699 247.109 814.577 229.002C784.351 208.777 751.142 197.627 716.172 188.661C684.744 180.571 655.152 168.14 634.84 141.747C630.683 136.354 626.316 130.482 623.111 124.448C619.021 116.749 619.339 109.118 618.536 100.489C616.444 77.7163 611.996 55.2065 608.426 32.7102Z" stroke="white"/>
<path fill-rule="evenodd" clip-rule="evenodd" d="M639.066 28.6475C639.74 -18.5648 651.106 -63.1842 682.236 -99.9776C695.544 -115.717 711.436 -128.682 726.08 -143.105C737.871 -154.732 749.014 -165.536 762.572 -175.118C794.733 -197.805 820.871 -227.164 855.05 -247.367C900.675 -274.377 952.937 -289.306 1004.79 -295.275C1030.12 -298.192 1056.27 -299.212 1081.89 -295.917C1103.9 -293.087 1124.97 -283.155 1144.52 -272.992C1182.83 -253.087 1220.03 -224.794 1244.91 -189C1299.75 -110.086 1191.62 -52.7113 1136.12 -19.1117C1110.59 -3.65567 1071.59 14.2448 1061.14 44.8598C1053.66 66.7306 1049.11 88.9728 1039.49 110.168C1013.63 167.09 961.146 234.04 891.204 225.127C861.276 221.318 833.998 205.849 806.059 195.464C777.29 184.768 747.597 178.806 717.696 172.263C689.75 166.152 667.477 157.455 649.427 134.139C640.799 123.005 641.562 109.675 640.793 96.0154C639.538 73.5775 638.762 51.0112 639.066 28.6475Z" stroke="white"/>
<path fill-rule="evenodd" clip-rule="evenodd" d="M666.966 22.6004C678.202 -48.6623 719.934 -126.461 781.297 -167.847C853.477 -216.53 931.674 -257.525 1017.91 -269.31C1057.9 -274.774 1101.7 -277.463 1139.42 -259.593C1168.14 -246.002 1201.49 -225.687 1217.29 -197.117C1255.95 -127.236 1169.96 -71.6057 1120.97 -39.276C1094.59 -21.8714 1061.02 -4.91151 1041.14 20.5048C1029.6 35.2411 1023.71 54.7346 1014.4 70.9196C986.183 119.967 939.73 159.526 881.866 166.601C855.111 169.869 828.161 165.826 801.609 162.612C774.429 159.324 746.912 157.538 719.9 152.95C698.339 149.284 672.928 143.078 664.987 120.027C654.973 90.9791 662.38 51.7024 666.966 22.6004Z" stroke="white"/>
<path fill-rule="evenodd" clip-rule="evenodd" d="M694.324 11.1524C710.712 -55.8465 745.414 -121.2 803.752 -161.197C834.688 -182.406 870.601 -197.047 905.08 -211.512C944.163 -227.906 984.997 -240.631 1026.7 -246.943C1078.63 -254.807 1162.73 -261.894 1189.86 -202.786C1216.79 -144.115 1148.75 -92.1884 1108.51 -62.5969C1082.71 -43.6403 1055.1 -26.2415 1030.45 -5.51806C1017.08 5.71699 1006.79 18.6987 995.476 31.8759C964.215 68.3865 919.649 97.2901 874.225 112.72C830.199 127.677 775.736 134.3 729.263 129.357C709.211 127.232 694.879 120.064 688.814 99.6841C680.411 71.3537 687.55 38.8287 694.324 11.1524Z" stroke="white"/>
<path fill-rule="evenodd" clip-rule="evenodd" d="M721.51 -6.89262C737.79 -65.8827 772.904 -119.762 824.124 -155.167C881.538 -194.856 955.469 -216.91 1023.42 -228.125C1059.54 -234.082 1137.81 -250.233 1156.22 -204.01C1174.63 -157.786 1121.41 -112.234 1090.78 -87.1578C1053.6 -56.7696 1013.52 -27.429 973.481 -0.163535C938.697 23.5426 901.58 47.7793 863.903 66.0861C842.654 76.4714 820.518 84.9509 797.759 91.4241C780.906 96.1788 759.476 103.271 741.807 99.7314C697.241 90.7929 713.724 21.313 721.51 -6.89262Z" stroke="white"/>
<path fill-rule="evenodd" clip-rule="evenodd" d="M755.067 -24.5573C790.787 -136.114 903.959 -190.98 1012.92 -210.104C1038.25 -214.543 1109.23 -230.548 1123.38 -196.47C1137.1 -163.429 1093.48 -124.245 1073.06 -105.681C1009.78 -48.154 931.598 -5.50076 857.516 36.755C834.392 49.9444 792.687 78.5662 764.003 65.3634C732.86 51.0019 747.667 -1.42542 755.067 -24.5573Z" stroke="white"/>
<path fill-rule="evenodd" clip-rule="evenodd" d="M791.655 -46.0291C822.719 -128.183 913.071 -175.301 996.141 -190.834C1016.49 -194.635 1068.16 -206.468 1083.57 -183.542C1097.83 -162.335 1063.8 -131.606 1051.07 -119.395C1022.72 -92.2038 989.129 -69.8038 955.942 -48.2731C925.256 -28.353 894.239 -7.93428 861.952 8.91289C844.945 17.7812 813.05 36.704 793.724 23.0106C772.918 8.27947 784.758 -27.787 791.655 -46.0291Z" stroke="white"/>
<path fill-rule="evenodd" clip-rule="evenodd" d="M-207.146 91.9466C-208.002 39.3149 -235.996 -15.3843 -222.171 -69.0127C-210.818 -113.058 -153.663 -116.735 -119.375 -136.69C-92.1284 -152.543 -76.6656 -180.627 -61.9305 -207.572C-48.6911 -231.763 -36.7993 -256.682 -22.8524 -280.475C-13.824 -295.857 1.6792 -326.063 21.2587 -326.608C40.0027 -327.133 57.1903 -303.596 68.0782 -289.682C82.2744 -271.545 94.8602 -252.21 108.645 -233.784C131.877 -202.703 159.75 -179.697 191.666 -157.924C227.986 -133.149 264.906 -109.221 302.425 -86.139C330.05 -69.0935 357.862 -52.176 384.415 -33.4468C401.071 -21.6947 437.831 0.354699 438 22.0202C438.08 32.358 428.277 43.807 421.668 52.0704C410.483 66.0584 397.736 78.8476 384.948 91.3606C361.13 114.669 336.302 136.921 311.744 159.442C279.868 188.67 249.421 217.421 221.399 250.603C192.427 284.95 164.749 320.428 136.505 355.421C117.377 379.128 98.2694 405.75 70.679 420.297C36.1218 438.48 7.7565 419.307 -27.1914 419.084C-57.2546 418.889 -55.0379 349.279 -58.8582 329.924C-62.6918 310.333 -71.1408 292.095 -74.4153 272.457C-78.4983 247.942 -78.5522 222.862 -79.5561 198.085C-80.7756 167.779 -81.2607 138.928 -113.675 127.371C-132.123 120.805 -152.08 119.424 -171.174 115.491C-183.544 112.939 -206.876 108.575 -207.146 91.9466Z" stroke="white"/>
<path fill-rule="evenodd" clip-rule="evenodd" d="M-192.366 82.5839C-195.518 38.4656 -214.135 -18.0026 -196.53 -63.5441C-181.489 -102.462 -134.45 -107.507 -102.776 -127.951C-76.628 -144.813 -64.988 -172.407 -51.9175 -199.514C-41.4314 -221.26 -31.2625 -243.214 -19.3593 -264.265C-10.5872 -279.778 2.80727 -305.969 21.0466 -309.179C37.4438 -312.066 55.0286 -288.945 64.2326 -277.182C77.6607 -260.009 89.1455 -241.36 101.008 -223.101C121.852 -191.029 143.195 -162.188 173.702 -138.628C204.344 -114.967 237.867 -97.2752 271.748 -78.8617C298.253 -64.4546 324.624 -49.6294 349.807 -32.9965C368.566 -20.6129 395.537 -4.76237 404.12 17.3204C410.915 34.7896 376.454 63.7792 366.292 74.0112C345.373 95.0485 323.207 114.797 301 134.425C273.928 158.342 245.992 179.258 222.084 206.541C179.323 255.32 143.58 316.065 88.5584 352.319C55.3727 374.186 18.4419 379.777 -18.4686 376.506C-33.0844 375.211 -36.5932 354.592 -38.4354 342.566C-41.4989 322.587 -41.8835 302.265 -44.2385 282.206C-46.445 263.428 -51.3439 245.588 -55.2914 227.174C-59.2861 208.518 -60.4063 189.403 -63.3483 170.618C-65.1702 158.956 -66.9719 145.386 -74.941 136.01C-83.1869 126.304 -96.7905 122.237 -108.68 119.148C-131.009 113.401 -190.14 113.718 -192.366 82.5839Z" stroke="white"/>
<path fill-rule="evenodd" clip-rule="evenodd" d="M-173.344 64.1152C-178.644 23.6179 -186.064 -26.8219 -164.473 -64.133C-146.826 -94.6407 -109.188 -101.222 -82.3047 -121.1C-59.9448 -137.63 -51.4991 -163.921 -40.4002 -188.353C-31.2928 -208.393 -22.1382 -228.52 -11.1001 -247.59C-2.72861 -262.052 8.05978 -281.661 24.6812 -286.707C38.8924 -291.018 54.9467 -271.705 62.8253 -262.093C76.2399 -245.711 87.1768 -227.355 98.0395 -209.242C115.809 -179.603 132.16 -147.943 157.45 -123.835C182.024 -100.44 211.216 -86.6315 240.955 -71.1049C263.734 -59.2089 286.37 -46.855 307.832 -32.6688C324.312 -21.7833 344.734 -8.8837 353.322 9.22961C360.748 24.8506 341.683 43.3411 332.157 54.3613C316.427 72.5487 298.968 89.234 281.753 105.987C263.173 124.059 242.596 140.731 224.617 159.249C186.811 198.217 156.606 241.362 110.009 271.216C79.8315 290.555 39.2232 308.123 3.54999 304.964C-22.1045 302.687 -20.4167 245.956 -22.8809 227.829C-26.9316 198.19 -34.7562 167.049 -47.1851 139.748C-57.8587 116.353 -83.2229 109.139 -106.555 103.892C-121.171 100.598 -136.49 98.8194 -150.627 93.727C-166.992 87.8262 -171.123 81.0901 -173.344 64.1152Z" stroke="white"/>
<path fill-rule="evenodd" clip-rule="evenodd" d="M-155.601 45.1327C-158.756 10.8943 -158.047 -29.5932 -137.607 -59.2107C-119.695 -85.153 -87.8021 -91.9831 -65.1192 -112.419C-47.4161 -128.363 -40.4632 -154.359 -30.9427 -175.444C-19.3074 -201.225 -3.00294 -248.84 26.3491 -258.541C53.6537 -267.56 82.2084 -209.946 92.0938 -192.766C107.743 -165.574 120.831 -135.754 139.811 -110.643C156.156 -89.0241 178.055 -77.0731 201.299 -64.2303C230.935 -47.8272 275.929 -28.3772 291.774 3.59128C303.585 27.4123 265.179 62.8262 252.063 79.3306C238.347 96.5715 228.016 117.008 213.86 133.641C191.522 159.887 155.325 181.019 125.439 197.145C96.3844 212.832 58.6538 230.195 25.6936 229.161C4.031 228.485 -0.0907097 195.058 -4.71243 178.729C-11.3342 155.516 -20.1384 134.715 -39.051 118.926C-58.3014 102.854 -80.9911 95.2811 -104.843 88.6536C-117.087 85.2757 -131.053 82.641 -142.006 75.8176C-154.108 68.393 -154.385 58.293 -155.601 45.1327Z" stroke="white"/>
<path fill-rule="evenodd" clip-rule="evenodd" d="M-133.982 25.3978C-133.807 -4.18167 -127.038 -35.7241 -106.968 -58.5407C-90.2515 -77.5455 -64.0861 -83.8983 -48.0837 -103.327C-35.4084 -118.708 -28.9563 -140.301 -20.4702 -158.163C-10.0916 -180.052 4.58397 -218.29 30.3925 -225.887C55.5814 -233.281 77.8608 -191.164 87.5188 -174.499C101.662 -150.062 113.112 -124.16 127.383 -99.7906C138.563 -80.6715 152.235 -68.349 170.44 -56.0264C191.81 -41.5527 221.626 -25.5192 233.042 -1.5733C241.272 15.7643 221.35 43.4681 214.117 58.7419C209.267 69.0006 204.829 79.4207 202.391 90.5399C200.492 99.1986 200.303 107.212 194.801 114.647C180.947 133.349 150.572 135.79 129.963 141.954C102.592 150.136 73.5504 159.433 44.9064 161.208C27.3011 162.317 18.3167 146.109 8.26804 134.707C-3.60577 121.229 -20.4163 111.535 -35.0986 101.363C-54.4752 87.9181 -75.5625 79.5551 -97.3772 70.9905C-107.217 67.125 -118.774 63.3335 -126.398 55.6495C-134.359 47.6832 -134.042 36.0733 -133.982 25.3978Z" stroke="white"/>
<path fill-rule="evenodd" clip-rule="evenodd" d="M-111.276 7.8378C-107.797 -17.005 -96.9558 -40.7488 -78.6449 -58.3107C-64.6084 -71.7938 -45.9671 -79.3849 -34.7014 -95.5849C-24.2044 -110.686 -16.8894 -127.857 -8.21939 -144.003C0.956291 -161.073 14.5883 -189.603 35.7511 -194.248C58.5588 -199.25 76.1281 -170.47 85.8566 -154.52C98.1471 -134.363 107.485 -112.675 118.474 -91.8231C126.753 -76.2814 137.313 -62.0674 149.803 -49.6545C162.903 -36.569 180.668 -24.0364 187.295 -6.04313C193.153 9.89398 182.191 29.1749 180.256 45.3345C178.187 62.5997 181.814 80.7346 170.339 95.5593C146.675 126.132 87.2859 120.463 53.3339 121.117C19.8335 121.791 -7.10024 103.083 -34.2093 85.2852C-52.1157 73.5346 -70.7637 63.584 -89.1218 52.6356C-107.837 41.4648 -114.336 29.7008 -111.276 7.8378Z" stroke="white"/>
<path fill-rule="evenodd" clip-rule="evenodd" d="M-90.1792 -6.38121C-79.8916 -42.3712 -47.7607 -61.4998 -24.7907 -88.698C-5.9965 -110.964 8.09579 -157.075 39.7478 -163.174C75.6834 -170.097 97.1963 -109.001 109.69 -85.4256C123.553 -59.2799 148.243 -38.0124 158.51 -10.3351C163.907 4.19178 159.272 17.747 156.399 32.2672C153.248 48.211 150.881 64.5125 140.006 77.3458C118.601 102.601 76.7965 102.425 46.6894 103.12C15.5231 103.842 -12.0476 86.5355 -36.8795 69.2625C-63.2156 50.9706 -100.716 30.5264 -90.1792 -6.38121Z" stroke="white"/>
<path fill-rule="evenodd" clip-rule="evenodd" d="M-72.9486 -16.1405C-61.3564 -41.7822 -36.9965 -62.6283 -17.23 -82.3073C-0.731913 -98.7132 17.0165 -131.74 42.1714 -134.094C71.7362 -136.871 89.6545 -101.604 101.287 -79.9799C112.737 -58.7314 129.235 -36.2957 135.575 -12.9747C142.186 11.3189 124.58 44.0369 107.79 61.2275C89.0633 80.3968 58.4249 87.4796 32.1353 86.715C4.60893 85.9369 -20.6479 70.0945 -41.4948 53.6617C-63.7822 36.0955 -86.4297 13.6263 -72.9486 -16.1405Z" stroke="white"/>
<path fill-rule="evenodd" clip-rule="evenodd" d="M-56.9603 -20.9678C-45.8874 -42.2949 -26.6933 -60.3363 -8.99567 -76.429C4.66187 -88.853 24.8149 -109.979 44.519 -110.496C66.1956 -111.067 84.5666 -93.3348 93.1842 -75.1591C101.679 -57.232 110.63 -34.7559 111.902 -15.0884C114.664 27.7405 58.4418 75.7163 16.2245 71.8124C-23.8027 68.1101 -79.0382 21.5251 -56.9603 -20.9678Z" stroke="white"/>
<path fill-rule="evenodd" clip-rule="evenodd" d="M-42.1741 -23.3196C-26.8984 -51.1071 10.2067 -90.7219 44.5584 -91.6627C83.9884 -92.738 93.8867 -48.6542 88.7472 -16.707C83.5261 15.8988 38.066 63.0939 1.8176 56.7165C-33.5607 50.4937 -60.2779 9.63567 -42.1741 -23.3196Z" stroke="white"/>
<path fill-rule="evenodd" clip-rule="evenodd" d="M-26.5621 -27.8126C-13.6286 -51.0786 13.9704 -80.1393 42.7556 -81.0189C77.0538 -82.0597 76.4068 -44.8408 68.6292 -21.6755C60.5416 2.37613 24.9224 43.4559 -5.10966 36.9696C-34.3127 30.6378 -38.9564 -5.51349 -26.5621 -27.8126Z" stroke="white"/>
<path fill-rule="evenodd" clip-rule="evenodd" d="M-12.9644 -30.4902C-4.42738 -47.0916 16.9387 -68.0738 37.2504 -68.7452C62.0772 -69.5522 57.2511 -40.0319 50.8366 -25.7838C43.2121 -8.82974 17.6552 20.6295 -3.79199 15.8553C-24.908 11.1556 -20.0075 -16.8117 -12.9644 -30.4902Z" stroke="white"/>
</g>
</svg>
