<svg width="37" height="37" viewBox="0 0 37 37" fill="none" xmlns="http://www.w3.org/2000/svg">
<path d="M23.125 3.08334C17.9185 3.08553 13.4564 6.80588 12.5179 11.9271C16.9995 9.47474 22.6205 11.1197 25.0729 15.6012C26.5869 18.3679 26.5869 21.7153 25.0729 24.4821C30.9332 23.4085 34.8137 17.7875 33.7402 11.9272C32.8014 6.80278 28.3347 3.08137 23.125 3.08334Z" fill="#C3E8F1"/>
<path d="M10.7917 33.9167C15.0489 33.9167 18.5 30.4655 18.5 26.2083C18.5 21.9511 15.0489 18.5 10.7917 18.5C6.53447 18.5 3.08334 21.9511 3.08334 26.2083C3.08334 30.4655 6.53447 33.9167 10.7917 33.9167Z" fill="#027794"/>
<path d="M16.9583 10.7917C12.2048 10.7921 8.22539 14.3954 7.75459 19.1256C11.6639 17.446 16.1947 19.2535 17.8744 23.1629C18.7086 25.1046 18.7086 27.3037 17.8744 29.2454C22.9577 28.74 26.6688 24.2094 26.1633 19.126C25.6929 14.3951 21.7126 10.7912 16.9583 10.7917Z" fill="#52A0B4"/>
</svg>
